<?xml version="1.0" standalone="no"?>
<!DOCTYPE svg PUBLIC "-//W3C//DTD SVG 20010904//EN"
 "http://www.w3.org/TR/2001/REC-SVG-20010904/DTD/svg10.dtd">
<svg version="1.0" xmlns="http://www.w3.org/2000/svg"
 width="107.000000pt" height="74.000000pt" viewBox="0 0 107.000000 74.000000"
 preserveAspectRatio="xMidYMid meet">

<g transform="translate(0.000000,74.000000) scale(0.100000,-0.100000)"
fill="" stroke="none">
<path d="M580 675 c-18 -22 -5 -58 28 -77 34 -20 62 -73 62 -115 0 -69 -67
-133 -140 -133 -67 0 -117 49 -135 133 -5 23 -10 27 -40 27 -29 0 -36 -4 -41
-26 -19 -75 70 -191 164 -213 67 -17 121 -7 179 32 123 83 128 272 10 358 -45
32 -69 36 -87 14z"/>
<path d="M626 148 c-25 -14 -19 -45 11 -60 31 -15 33 -33 3 -33 -33 -1 -27
-20 7 -23 23 -2 34 2 42 15 11 22 5 35 -27 52 -25 13 -25 38 1 33 8 -1 18 2
21 7 8 12 -39 20 -58 9z"/>
<path d="M720 140 c0 -5 7 -10 15 -10 11 0 15 -12 15 -50 0 -27 5 -50 10 -50
6 0 10 23 10 50 0 43 3 50 20 50 11 0 20 5 20 10 0 6 -20 10 -45 10 -25 0 -45
-4 -45 -10z"/>
<path d="M939 121 c12 -16 21 -43 21 -60 0 -21 5 -31 15 -31 10 0 15 10 15 31
0 17 9 44 21 60 23 33 8 40 -24 12 -18 -17 -19 -17 -28 0 -6 9 -17 17 -25 17
-12 0 -11 -5 5 -29z"/>
<path d="M841 88 c-12 -28 -18 -54 -15 -57 4 -3 9 0 11 7 3 6 17 12 33 12 16
0 30 -6 33 -12 2 -7 7 -10 11 -7 7 6 -35 108 -45 109 -4 0 -16 -23 -28 -52z
m39 -3 c0 -8 -7 -15 -15 -15 -9 0 -12 6 -9 15 4 8 10 15 15 15 5 0 9 -7 9 -15z"/>
</g>
</svg>
